<svg width="200" height="200" viewBox="0 0 200 200" fill="none" xmlns="http://www.w3.org/2000/svg">
<g id="Abstract Design" clip-path="url(#clip0_82_532)">
<g id="Group">
<path id="Vector" d="M0 24.9957L24.9957 0H49.9914V24.9957L24.9957 49.9914H0V24.9957Z" fill="#93C5FD"/>
<path id="Vector_2" d="M49.9918 0H24.9961V24.9957H49.9918V0Z" fill="#262626"/>
</g>
<g id="Group_2">
<path id="Vector_3" d="M0 75.0041L24.9957 49.9912H49.9914V75.0041L24.9957 99.9998H0V75.0041Z" fill="#93C5FD"/>
<path id="Vector_4" d="M49.9918 49.9912H24.9961V74.9869H49.9918V49.9912Z" fill="#262626"/>
</g>
<g id="Group_3">
<path id="Vector_5" d="M0 124.996L24.9957 100H49.9914V124.996L24.9957 149.991H0V124.996Z" fill="#93C5FD"/>
<path id="Vector_6" d="M49.9918 100H24.9961V124.996H49.9918V100Z" fill="#262626"/>
</g>
<g id="Group_4">
<path id="Vector_7" d="M0 174.987L24.9957 149.991H49.9914V174.987L24.9957 200H0V174.987Z" fill="#93C5FD"/>
<path id="Vector_8" d="M49.9918 149.991H24.9961V174.987H49.9918V149.991Z" fill="#262626"/>
</g>
<g id="Group_5">
<path id="Vector_9" d="M49.9912 24.9957L75.0041 0H99.9998V24.9957L75.0041 49.9914H49.9912V24.9957Z" fill="#93C5FD"/>
<path id="Vector_10" d="M99.9996 0H75.0039V24.9957H99.9996V0Z" fill="#262626"/>
</g>
<g id="Group_6">
<path id="Vector_11" d="M49.9912 75.0041L75.0041 49.9912H99.9998V75.0041L75.0041 99.9998H49.9912V75.0041Z" fill="#93C5FD"/>
<path id="Vector_12" d="M99.9996 49.9912H75.0039V74.9869H99.9996V49.9912Z" fill="#262626"/>
</g>
<g id="Group_7">
<path id="Vector_13" d="M49.9912 124.996L75.0041 100H99.9998V124.996L75.0041 149.991H49.9912V124.996Z" fill="#93C5FD"/>
<path id="Vector_14" d="M99.9996 100H75.0039V124.996H99.9996V100Z" fill="#262626"/>
</g>
<g id="Group_8">
<path id="Vector_15" d="M100 24.9957L124.996 0H149.991V24.9957L124.996 49.9914H100V24.9957Z" fill="#93C5FD"/>
<path id="Vector_16" d="M149.992 0H124.996V24.9957H149.992V0Z" fill="#262626"/>
</g>
<g id="Group_9">
<path id="Vector_17" d="M149.991 24.9957L174.987 0H200V24.9957L174.987 49.9914H149.991V24.9957Z" fill="#93C5FD"/>
<path id="Vector_18" d="M199.983 0H174.987V24.9957H199.983V0Z" fill="#262626"/>
</g>
<g id="Group_10">
<path id="Vector_19" d="M100 75.0041L124.996 49.9912H149.991V75.0041L124.996 99.9998H100V75.0041Z" fill="#93C5FD"/>
<path id="Vector_20" d="M149.992 49.9912H124.996V74.9869H149.992V49.9912Z" fill="#262626"/>
</g>
</g>
<defs>
<clipPath id="clip0_82_532">
<rect width="200" height="200" fill="white"/>
</clipPath>
</defs>
</svg>
