<svg width="500" height="500" viewBox="0 0 500 500" fill="none" xmlns="http://www.w3.org/2000/svg">
<rect width="500" height="500" rx="50" fill="white"/>
<rect x="82" y="221" width="30" height="125" fill="black"/>
<rect x="82" y="346" width="30" height="85" transform="rotate(-90 82 346)" fill="black"/>
<path fill-rule="evenodd" clip-rule="evenodd" d="M271.35 293C268.339 307.835 255.223 319 239.5 319C221.551 319 207 304.449 207 286.5C207 268.551 221.551 254 239.5 254C255.223 254 268.339 265.165 271.35 280H301.666C298.415 248.537 271.823 224 239.5 224C204.982 224 177 251.982 177 286.5C177 321.018 204.982 349 239.5 349C271.823 349 298.415 324.463 301.666 293H271.35Z" fill="black"/>
<rect x="312" y="221" width="30" height="125" fill="black"/>
<rect x="315" y="251" width="30" height="95" transform="rotate(-90 315 251)" fill="black"/>
<rect x="312" y="294" width="30" height="80" transform="rotate(-90 312 294)" fill="black"/>
<circle cx="238.5" cy="201.5" r="7.5" fill="black"/>
<path d="M335 131L406.88 208.25H263.12L335 131Z" fill="#D50032"/>
<circle cx="124" cy="159" r="40" fill="#10069F"/>
<path d="M383 306C377.696 306 372.609 308.107 368.858 311.858C365.107 315.609 363 320.696 363 326C363 331.304 365.107 336.391 368.858 340.142C372.609 343.893 377.696 346 383 346L383 326V306Z" fill="#10069F"/>
<path d="M383 346C388.304 346 393.391 343.893 397.142 340.142C400.893 336.391 403 331.304 403 326C403 320.696 400.893 315.609 397.142 311.858C393.391 308.107 388.304 306 383 306L383 326V346Z" fill="#D50032"/>
<path d="M282.303 174.941C287.436 166.691 290.105 157.146 289.997 147.431C289.888 137.715 287.007 128.232 281.691 120.099C276.376 111.966 268.847 105.52 259.992 101.521C251.137 97.5213 241.324 96.1347 231.707 97.5241C222.091 98.9135 213.071 103.021 205.71 109.363C198.349 115.706 192.953 124.018 190.157 133.324C187.361 142.629 187.282 152.54 189.928 161.889C192.574 171.238 197.835 179.637 205.093 186.096L239 148L282.303 174.941Z" fill="#FEDD00"/>
<rect x="83" y="286.563" width="219.996" height="30" transform="rotate(-45 83 286.563)" fill="black"/>
<rect x="238.563" y="131" width="62.0588" height="30" transform="rotate(45 238.563 131)" fill="black"/>
<path d="M83.8456 395.704V374.933H89.0896V395.704H83.8456ZM88.0056 395.704V391.192H98.0248V395.704H88.0056ZM104.307 388.262L96.368 374.933H102.374L108.438 385.743H104.219L110.283 374.933H116.172L108.174 388.262H104.307ZM103.692 395.704V386.124H108.936V395.704H103.692ZM126.881 396.026C125.299 396.026 123.834 395.762 122.487 395.235C121.139 394.688 119.958 393.936 118.942 392.979C117.946 392.003 117.165 390.86 116.598 389.552C116.051 388.243 115.778 386.827 115.778 385.304C115.778 383.761 116.051 382.345 116.598 381.056C117.165 379.747 117.946 378.614 118.942 377.657C119.958 376.7 121.129 375.948 122.457 375.402C123.805 374.855 125.26 374.581 126.823 374.581C128.463 374.581 129.938 374.845 131.246 375.372C132.555 375.88 133.707 376.593 134.703 377.511L131.188 381.026C130.699 380.48 130.094 380.05 129.371 379.737C128.649 379.425 127.799 379.269 126.823 379.269C125.983 379.269 125.211 379.405 124.508 379.679C123.825 379.952 123.229 380.362 122.721 380.909C122.213 381.437 121.813 382.071 121.52 382.813C121.247 383.556 121.11 384.386 121.11 385.304C121.11 386.222 121.247 387.052 121.52 387.794C121.813 388.536 122.213 389.18 122.721 389.727C123.229 390.255 123.825 390.665 124.508 390.958C125.211 391.231 125.983 391.368 126.823 391.368C127.799 391.368 128.658 391.221 129.401 390.928C130.143 390.616 130.777 390.176 131.305 389.61L134.82 393.126C133.805 394.044 132.652 394.756 131.363 395.264C130.094 395.772 128.6 396.026 126.881 396.026ZM137.087 395.704V374.933H142.331V395.704H137.087ZM141.247 395.704V391.28H152.497V395.704H141.247ZM141.247 387.266V382.96H151.442V387.266H141.247ZM141.247 379.357V374.933H152.321V379.357H141.247ZM142.683 373.556L141.218 371.037L146.345 366.877L148.776 370.861L142.683 373.556ZM155.454 395.704V374.933H160.698V395.704H155.454ZM159.614 395.704V391.28H170.864V395.704H159.614ZM159.614 387.266V382.96H169.809V387.266H159.614ZM159.614 379.357V374.933H170.688V379.357H159.614ZM189.306 396.026C187.724 396.026 186.26 395.762 184.912 395.235C183.564 394.688 182.383 393.936 181.367 392.979C180.371 392.003 179.59 390.86 179.023 389.552C178.477 388.243 178.203 386.827 178.203 385.304C178.203 383.761 178.477 382.345 179.023 381.056C179.59 379.747 180.371 378.614 181.367 377.657C182.383 376.7 183.555 375.948 184.883 375.402C186.23 374.855 187.685 374.581 189.248 374.581C190.888 374.581 192.363 374.845 193.671 375.372C194.98 375.88 196.132 376.593 197.128 377.511L193.613 381.026C193.125 380.48 192.519 380.05 191.796 379.737C191.074 379.425 190.224 379.269 189.248 379.269C188.408 379.269 187.636 379.405 186.933 379.679C186.25 379.952 185.654 380.362 185.146 380.909C184.639 381.437 184.238 382.071 183.945 382.813C183.672 383.556 183.535 384.386 183.535 385.304C183.535 386.222 183.672 387.052 183.945 387.794C184.238 388.536 184.639 389.18 185.146 389.727C185.654 390.255 186.25 390.665 186.933 390.958C187.636 391.231 188.408 391.368 189.248 391.368C190.224 391.368 191.084 391.221 191.826 390.928C192.568 390.616 193.203 390.176 193.73 389.61L197.245 393.126C196.23 394.044 195.078 394.756 193.789 395.264C192.519 395.772 191.025 396.026 189.306 396.026ZM208.79 396.084C207.188 396.084 205.714 395.811 204.366 395.264C203.019 394.717 201.837 393.956 200.821 392.979C199.825 392.003 199.044 390.86 198.478 389.552C197.911 388.223 197.628 386.798 197.628 385.274C197.628 383.751 197.902 382.345 198.448 381.056C199.015 379.747 199.796 378.605 200.792 377.628C201.788 376.652 202.96 375.9 204.308 375.372C205.655 374.825 207.13 374.552 208.731 374.552C210.333 374.552 211.807 374.825 213.155 375.372C214.502 375.9 215.674 376.652 216.67 377.628C217.666 378.605 218.438 379.747 218.985 381.056C219.551 382.364 219.834 383.78 219.834 385.304C219.834 386.827 219.551 388.243 218.985 389.552C218.438 390.86 217.666 392.012 216.67 393.008C215.674 393.985 214.502 394.747 213.155 395.293C211.827 395.821 210.372 396.084 208.79 396.084ZM208.731 391.397C209.903 391.397 210.919 391.143 211.778 390.635C212.637 390.128 213.301 389.415 213.77 388.497C214.239 387.579 214.473 386.505 214.473 385.274C214.473 384.376 214.336 383.556 214.063 382.813C213.809 382.071 213.428 381.437 212.921 380.909C212.413 380.362 211.807 379.942 211.104 379.65C210.401 379.357 209.61 379.21 208.731 379.21C207.559 379.21 206.544 379.464 205.684 379.972C204.825 380.46 204.161 381.163 203.692 382.081C203.224 382.999 202.989 384.063 202.989 385.274C202.989 386.212 203.116 387.061 203.37 387.823C203.644 388.565 204.034 389.21 204.542 389.757C205.05 390.284 205.655 390.694 206.358 390.987C207.061 391.26 207.852 391.397 208.731 391.397ZM222.457 395.704V374.933H226.236L234.205 386.973H232.418L240.357 374.933H244.136V395.704H238.951V383.604L239.771 383.839L234.996 391.016H231.597L226.851 383.839L227.672 383.604V395.704H222.457ZM252.872 395.704V375.079H258.116V395.704H252.872ZM246.515 379.444V374.933H264.473V379.444H246.515ZM266.858 395.704V374.933H272.102V395.704H266.858ZM271.018 395.704V391.28H282.268V395.704H271.018ZM271.018 387.266V382.96H281.213V387.266H271.018ZM271.018 379.357V374.933H282.092V379.357H271.018ZM294.177 395.704V391.192H299.158C300.33 391.192 301.345 390.967 302.204 390.518C303.083 390.069 303.757 389.405 304.226 388.526C304.695 387.628 304.929 386.544 304.929 385.274C304.929 384.024 304.685 382.97 304.197 382.11C303.728 381.232 303.064 380.567 302.204 380.118C301.345 379.669 300.33 379.444 299.158 379.444H293.943V374.933H299.187C300.788 374.933 302.263 375.187 303.611 375.695C304.958 376.183 306.13 376.886 307.126 377.804C308.122 378.722 308.894 379.816 309.44 381.085C310.007 382.355 310.29 383.761 310.29 385.304C310.29 386.866 310.007 388.282 309.44 389.552C308.894 390.821 308.122 391.915 307.126 392.833C306.13 393.751 304.958 394.463 303.611 394.971C302.283 395.459 300.828 395.704 299.246 395.704H294.177ZM290.633 395.704V374.933H295.877V395.704H290.633ZM312.919 395.704V374.933H318.163V395.704H312.919ZM317.079 395.704V391.28H328.329V395.704H317.079ZM317.079 387.266V382.96H327.274V387.266H317.079ZM317.079 379.357V374.933H328.153V379.357H317.079ZM336.693 395.704V374.933H341.937V395.704H336.693ZM340.853 387.94V383.517H351.136V387.94H340.853ZM340.853 379.357V374.933H351.605V379.357H340.853ZM364.223 396.084C362.622 396.084 361.147 395.811 359.8 395.264C358.452 394.717 357.271 393.956 356.255 392.979C355.259 392.003 354.478 390.86 353.911 389.552C353.345 388.223 353.062 386.798 353.062 385.274C353.062 383.751 353.335 382.345 353.882 381.056C354.448 379.747 355.23 378.605 356.226 377.628C357.222 376.652 358.394 375.9 359.741 375.372C361.089 374.825 362.563 374.552 364.165 374.552C365.766 374.552 367.241 374.825 368.588 375.372C369.936 375.9 371.108 376.652 372.104 377.628C373.1 378.605 373.871 379.747 374.418 381.056C374.985 382.364 375.268 383.78 375.268 385.304C375.268 386.827 374.985 388.243 374.418 389.552C373.871 390.86 373.1 392.012 372.104 393.008C371.108 393.985 369.936 394.747 368.588 395.293C367.26 395.821 365.805 396.084 364.223 396.084ZM364.165 391.397C365.337 391.397 366.352 391.143 367.212 390.635C368.071 390.128 368.735 389.415 369.204 388.497C369.672 387.579 369.907 386.505 369.907 385.274C369.907 384.376 369.77 383.556 369.497 382.813C369.243 382.071 368.862 381.437 368.354 380.909C367.846 380.362 367.241 379.942 366.538 379.65C365.835 379.357 365.044 379.21 364.165 379.21C362.993 379.21 361.977 379.464 361.118 379.972C360.259 380.46 359.595 381.163 359.126 382.081C358.657 382.999 358.423 384.063 358.423 385.274C358.423 386.212 358.55 387.061 358.804 387.823C359.077 388.565 359.468 389.21 359.975 389.757C360.483 390.284 361.089 390.694 361.792 390.987C362.495 391.26 363.286 391.397 364.165 391.397ZM377.891 395.704V374.933H383.134V395.704H377.891ZM399.707 395.704L394.082 386.446H393.555L385.645 374.933H391.885L397.392 383.663H397.92L405.859 395.704H399.707ZM385.293 395.704L392.852 384.601L396.982 386.563L391.27 395.704H385.293ZM398.037 385.977L393.906 383.985L399.502 374.933H405.478L398.037 385.977Z" fill="black"/>
</svg>
