<svg width="81" height="80" viewBox="0 0 81 80" fill="none" xmlns="http://www.w3.org/2000/svg">
<g id="Icon" clip-path="url(#clip0_82_578)">
<path id="Vector" d="M49.9411 48.5744C53.0837 54.3148 56.1511 59.9102 59.2132 65.5056C61.4835 69.6573 63.7512 73.8116 66.0082 77.9686C66.8294 79.4795 66.5261 79.9947 64.8167 79.9947C48.72 80.0001 32.6234 80.0001 16.5268 79.9947C14.9542 79.9947 14.6107 79.4607 15.3353 78.1323C20.9361 67.8646 26.5476 57.6022 32.1565 47.3426C32.2423 47.1869 32.3631 47.0528 32.5241 46.83C33.9196 47.6405 34.722 49.884 36.606 49.2936C38.1169 48.8186 39.3728 47.5358 41.0528 46.4033C41.7828 47.1923 42.7194 48.2577 43.715 49.2641C45.8324 51.4057 46.9783 51.4057 49.1065 49.3339C49.3265 49.1192 49.56 48.9206 49.9411 48.5771V48.5744Z" fill="#262626"/>
<path id="Vector_2" d="M45.0811 2.77539H67.9942C67.6641 3.26382 67.4843 3.58854 67.2481 3.86764C65.7748 5.60666 64.2773 7.3242 62.8093 9.0659C61.5078 10.6117 61.5265 12.0958 62.8415 13.6469C64.5135 15.614 66.1961 17.5704 68.0747 19.7603H45.0811V2.77539Z" fill="#D50032"/>
<path id="Vector_3" d="M11.8067 79.8982H0.419922C5.10291 71.5252 9.65709 63.3883 14.2166 55.2354C16.1882 56.7167 18.3557 56.6031 20.7192 54.8945C20.7594 54.9133 20.8077 54.924 20.8399 54.9509C22.6219 56.4591 22.9555 58.2294 21.8409 60.2619C18.8862 65.6614 15.9073 71.0475 13.0063 76.4739C12.4615 77.4937 12.2227 78.6772 11.8067 79.8955V79.8982Z" fill="#262626"/>
<path id="Vector_4" d="M60.4721 54.6472C62.9214 56.6403 65.1676 56.8326 67.2108 55.2242C71.7704 63.3799 76.3192 71.514 80.9995 79.8844H69.6529C69.1887 78.6123 68.8961 77.3644 68.3084 76.2695C65.1283 70.3332 61.8945 64.4265 58.6285 58.5385C58.1615 57.6959 58.1212 57.1645 58.8995 56.5097C59.5033 56.0025 59.9381 55.2913 60.4721 54.6445V54.6472Z" fill="#262626"/>
<path id="Vector_5" d="M48.5567 46.0297C47.8401 46.6496 47.1665 47.232 46.2782 48.0049C45.2075 46.8697 44.0884 45.6218 42.9022 44.4383C41.4101 42.9515 39.9716 42.9945 38.4902 44.4866C37.8381 45.1414 37.1753 45.7909 36.2735 46.6872C35.6375 45.9465 34.9854 45.2729 34.454 44.5161C34.2608 44.2397 34.1883 43.6734 34.3413 43.389C36.0776 40.1256 37.8489 36.8811 39.6523 33.6527C40.3017 32.4906 41.1605 32.5282 41.8287 33.7412C44.0454 37.756 46.2353 41.7842 48.5567 46.0324V46.0297Z" fill="#D50032"/>
<path id="Vector_6" d="M42.0833 30.0173H39.2923V28.6781C39.2923 19.8703 39.2923 11.0625 39.295 2.25744C39.295 1.81195 39.1957 1.27254 39.405 0.945129C39.6815 0.518427 40.2316 -0.0183059 40.6395 0.000479714C41.128 0.0246327 41.6379 0.537212 42.0377 0.939762C42.2068 1.10883 42.137 1.53822 42.137 1.84952C42.1424 10.9686 42.1397 20.0904 42.137 29.2095C42.137 29.4698 42.1021 29.7274 42.0807 30.0173H42.0833Z" fill="#D50032"/>
<path id="Vector_7" d="M20.6331 43.8452C21.1081 44.5725 21.3899 44.9536 21.6207 45.3642C22.7854 47.4252 23.9313 49.4943 25.0907 51.5554C25.6614 52.5716 25.5845 53.5619 24.8599 54.5262C23.62 53.6218 22.4956 52.4168 21.1135 51.8908C19.404 51.2441 18.5264 53.0797 17.1739 54.0753C16.7633 53.5386 16.3607 53.0153 15.8428 52.3363C17.3215 49.7144 18.8995 46.918 20.6331 43.8398V43.8452Z" fill="#262626"/>
<path id="Vector_8" d="M65.6736 52.5081C65.1691 53.0609 64.7236 53.5467 64.2969 54.0136C61.8762 52.271 59.3258 52.4786 56.6458 54.6362C55.7333 53.7077 55.5347 52.8006 56.2942 51.5876C57.5475 49.5829 58.629 47.4735 59.791 45.4125C60.0245 44.9992 60.2955 44.6074 60.7813 43.8398C61.7125 45.4661 62.4988 46.8214 63.269 48.1847C64.058 49.5829 64.8336 50.9918 65.6736 52.5081Z" fill="#262626"/>
</g>
<defs>
<clipPath id="clip0_82_578">
<rect width="80.5797" height="80" fill="white" transform="translate(0.419922)"/>
</clipPath>
</defs>
</svg>
