<svg width="88" height="88" viewBox="0 0 88 88" fill="none" xmlns="http://www.w3.org/2000/svg">
<g id="Abstract Design" clip-path="url(#clip0_82_618)">
<g id="Group">
<path id="Vector" d="M58.21 14.8947L72.76 0.344727H87.31V14.8947L72.76 29.4447H58.21V14.8947Z" fill="#FCA5A5"/>
<path id="Vector_2" d="M87.3098 0.344727H72.7598V14.8947H87.3098V0.344727Z" fill="#D50032"/>
</g>
<g id="Group_2">
<path id="Vector_3" d="M58.21 44.0043L72.76 29.4443H87.31V44.0043L72.76 58.5543H58.21V44.0043Z" fill="#FCA5A5"/>
<path id="Vector_4" d="M87.3098 29.4443H72.7598V43.9943H87.3098V29.4443Z" fill="#D50032"/>
</g>
<g id="Group_3">
<path id="Vector_5" d="M29.0996 14.8947L43.6596 0.344727H58.2096V14.8947L43.6596 29.4447H29.0996V14.8947Z" fill="#FCA5A5"/>
<path id="Vector_6" d="M58.2092 0.344727H43.6592V14.8947H58.2092V0.344727Z" fill="#D50032"/>
</g>
<g id="Group_4">
<path id="Vector_7" d="M29.0996 44.0043L43.6596 29.4443H58.2096V44.0043L43.6596 58.5543H29.0996V44.0043Z" fill="#FCA5A5"/>
<path id="Vector_8" d="M58.2092 29.4443H43.6592V43.9943H58.2092V29.4443Z" fill="#D50032"/>
</g>
<g id="Group_5">
<path id="Vector_9" d="M0 14.8947L14.55 0.344727H29.1V14.8947L14.55 29.4447H0V14.8947Z" fill="#FCA5A5"/>
<path id="Vector_10" d="M29.0998 0.344727H14.5498V14.8947H29.0998V0.344727Z" fill="#D50032"/>
</g>
<g id="Group_6">
<path id="Vector_11" d="M0 44.0043L14.55 29.4443H29.1V44.0043L14.55 58.5543H0V44.0043Z" fill="#FCA5A5"/>
<path id="Vector_12" d="M29.0998 29.4443H14.5498V43.9943H29.0998V29.4443Z" fill="#D50032"/>
</g>
<g id="Group_7">
<path id="Vector_13" d="M58.21 73.1047L72.76 58.5547H87.31V73.1047L72.76 87.6547H58.21V73.1047Z" fill="#FCA5A5"/>
<path id="Vector_14" d="M87.3098 58.5547H72.7598V73.1047H87.3098V58.5547Z" fill="#D50032"/>
</g>
<g id="Group_8">
<path id="Vector_15" d="M29.0996 73.1047L43.6596 58.5547H58.2096V73.1047L43.6596 87.6547H29.0996V73.1047Z" fill="#FCA5A5"/>
<path id="Vector_16" d="M58.2092 58.5547H43.6592V73.1047H58.2092V58.5547Z" fill="#D50032"/>
</g>
<g id="Group_9">
<path id="Vector_17" d="M0 73.1047L14.55 58.5547H29.1V73.1047L14.55 87.6547H0V73.1047Z" fill="#FCA5A5"/>
<path id="Vector_18" d="M29.0998 58.5547H14.5498V73.1047H29.0998V58.5547Z" fill="#D50032"/>
</g>
</g>
<defs>
<clipPath id="clip0_82_618">
<rect width="87.31" height="87.31" fill="white" transform="translate(0 0.344727)"/>
</clipPath>
</defs>
</svg>
