<svg width="107" height="80" viewBox="0 0 107 80" fill="none" xmlns="http://www.w3.org/2000/svg">
<g id="Icon" clip-path="url(#clip0_82_591)">
<path id="Vector" d="M96.8358 27.9558C93.7579 26.9202 90.7672 25.5793 87.6384 24.9252C79.7165 23.2718 72.1472 24.5981 65.4717 29.1841C62.9462 30.9211 61.0856 33.6538 59.0034 36.0049C57.2083 38.0326 55.5294 40.1657 53.6507 42.4332C51.692 40.1148 49.915 37.8436 47.9564 35.736C45.5798 33.1814 43.4322 30.1325 40.5214 28.4173C31.5785 23.1373 22.1667 23.0792 12.7222 27.3635C12.079 27.6542 11.4504 27.9777 10.3711 28.5046C11.5448 26.0553 12.5187 24.0167 13.4999 21.9781C14.2848 20.3429 15.2514 18.773 15.8256 17.0687C17.4971 12.1303 21.5744 10.0808 26.0513 9.17956C31.8256 8.02035 37.5526 8.68535 42.4329 12.4791C43.2432 13.1078 43.8646 14.2379 44.1372 15.2518C44.7004 17.334 44.9693 19.4998 45.4454 22.0835C46.739 21.7455 47.9673 21.6074 49.0284 21.1096C52.2625 19.5979 55.4058 19.4925 58.5855 21.2295C59.1887 21.5602 59.9155 21.7056 60.6023 21.8291C61.7833 22.0435 62.332 21.5747 62.4192 20.2883C62.5319 18.6059 62.7499 16.9016 63.1896 15.2809C63.4549 14.2997 64.0363 13.2422 64.7922 12.5772C69.4399 8.47822 75.007 8.38737 80.7231 9.20136C81.8496 9.36125 82.958 9.72101 84.0445 10.0844C87.1878 11.1382 89.6698 12.8389 91.0506 16.1094C92.526 19.6088 94.4156 22.9302 96.1163 26.3351C96.3997 26.902 96.6323 27.4907 96.8394 27.9595L96.8358 27.9558Z" fill="#262626"/>
<path id="Vector_2" d="M51.1724 54.6933C51.1106 68.8219 39.8347 80.0324 25.7207 79.9961C11.6503 79.9598 0.276216 68.5966 0.287117 54.5916C0.298019 40.5612 11.9664 28.9654 25.9097 29.1217C40.0164 29.2779 51.2306 40.6338 51.1724 54.6933ZM25.757 71.2602C35.1543 71.2602 42.7454 63.6836 42.7309 54.3154C42.7164 44.8964 35.1688 37.3851 25.728 37.3924C16.4652 37.3997 8.91396 44.9618 8.86309 54.2791C8.81221 63.7054 16.3271 71.2566 25.7534 71.2602H25.757Z" fill="#D50032"/>
<path id="Vector_3" d="M56.1182 54.5811C56.1254 40.5216 67.4668 29.1439 81.4936 29.1221C95.4514 29.1003 106.924 40.5252 107 54.5266C107.08 68.5752 95.5822 80.0401 81.4573 80.0038C67.3323 79.9638 56.1109 68.706 56.1182 54.5847V54.5811ZM98.4239 54.3558C98.4239 44.8641 90.9635 37.3856 81.5045 37.3965C72.1727 37.4037 64.5306 45.0821 64.5561 54.4249C64.5815 63.7022 72.1509 71.2497 81.4536 71.2643C90.9054 71.2824 98.4202 63.7894 98.4202 54.3558H98.4239Z" fill="#D50032"/>
<path id="Vector_4" d="M83.489 4.69852C77.2279 3.12141 71.3846 3.51024 65.7012 6.17388C66.239 3.55021 69.1824 0.995588 72.264 0.37056C76.7337 -0.537912 80.9926 1.01739 83.489 4.70215V4.69852Z" fill="#262626"/>
<path id="Vector_5" d="M24.0273 4.14283C26.1604 1.41014 29.0457 -0.185133 32.6615 0.0183646C36.6769 0.243666 39.7366 2.1987 41.6844 5.76354C38.7627 5.13124 35.9101 4.23004 32.9994 3.9684C30.0414 3.69949 27.0289 4.05925 24.0273 4.14283Z" fill="#262626"/>
</g>
<defs>
<clipPath id="clip0_82_591">
<rect width="106.713" height="80" fill="white" transform="translate(0.287109)"/>
</clipPath>
</defs>
</svg>
