<svg width="73" height="73" viewBox="0 0 73 73" fill="none" xmlns="http://www.w3.org/2000/svg">
<g opacity="0.9">
<path d="M43.5254 1.33203C43.6949 1.3502 43.8584 1.36836 44.0279 1.39258C43.8645 1.36836 43.6949 1.3502 43.5254 1.33203Z" fill="#262626"/>
<path d="M53.9944 4.71065L53.0802 4.22021C53.0559 4.2081 53.0257 4.18993 53.0014 4.17782C52.9046 4.12938 52.8077 4.08093 52.7108 4.03249C52.7714 4.06277 52.838 4.09306 52.9046 4.12333C52.7592 4.04462 52.6139 3.97196 52.4686 3.89324L51.8268 3.6026C51.8813 3.62682 51.9418 3.6571 51.9963 3.68132C51.2092 3.31803 50.41 2.99107 49.5865 2.70044C46.0686 1.87092 42.4418 1.52578 36.1992 1.42285C47.77 1.99201 51.742 3.64499 53.0741 4.21415C53.3829 4.37158 53.6917 4.53506 53.9944 4.71065Z" fill="#262626"/>
<path d="M44.785 1.05395C44.3309 0.94496 43.8768 0.835973 43.4893 0.751205L43.2471 0.702756C41.915 0.490836 39.269 0.908634 36.1992 1.43541C36.4656 1.39908 36.726 1.3688 36.9924 1.33853C42.0724 0.75726 43.5438 0.854143 44.785 1.06001V1.05395Z" fill="#262626"/>
<path d="M41.037 0.327153C40.6374 0.272659 40.1409 0.218165 39.7534 0.175781C39.7534 0.175781 39.7413 0.175781 39.7353 0.175781C39.6626 0.193946 39.6505 0.200005 36.1992 1.42914C40.2075 0.363486 40.6011 0.357426 41.14 0.345316C41.1097 0.345316 41.0734 0.339268 41.037 0.333213V0.327153Z" fill="#262626"/>
<path d="M23.9266 70.2902C24.0114 70.3205 24.1022 70.3507 24.193 70.3871C24.8349 70.605 25.6341 70.8533 26.2456 71.041C26.8814 71.2226 27.7351 71.4224 28.377 71.5738C20.0273 69.5333 12.9007 64.9619 7.20312 57.9746L8.80766 59.9545C9.00747 60.1786 9.18306 60.3784 9.3526 60.56C9.94597 61.1776 10.6483 61.8921 11.3628 62.5823C11.8048 62.988 12.3558 63.4724 13.1187 64.1505C13.5123 64.4654 13.9725 64.8166 14.4447 65.1678C18.4954 68.1528 21.2625 69.2548 23.9327 70.2962L23.9266 70.2902Z" fill="#262626"/>
<path d="M38.0165 0.0968614C37.962 0.0786968 37.8954 0.0544922 37.8409 0.0363276C37.8409 0.0363276 37.8348 0.0363276 37.8288 0.0363276C37.4534 0.0181631 37.2233 0.0121031 37.1991 0.0121031C36.9871 0.0121031 36.7207 0 36.4967 0C36.9205 0.0181646 36.9326 0.0302691 37.1264 0.278518C37.0457 0.569151 36.7389 0.952622 36.2061 1.42894C37.9075 0.48438 37.962 0.302726 38.0225 0.0968614H38.0165Z" fill="#262626"/>
<path d="M2.43853 49.4619C9.07465 65.1318 25.6952 71.1322 31.5684 72.1192C31.5987 72.1192 31.6229 72.1252 31.6532 72.1313C31.962 72.1676 32.3495 72.21 32.6522 72.2403L33.2698 72.2947C33.2698 72.2947 33.2941 72.2947 33.3001 72.2947C29.8367 71.9738 6.01694 64.9442 0.652344 43.3223C0.712892 43.6432 0.767386 43.958 0.827935 44.2487C1.22756 45.7563 1.8391 47.7302 2.35376 49.2318C2.38403 49.3105 2.41431 49.3832 2.43853 49.4619Z" fill="#262626"/>
<path d="M35.1883 0.278323C36.0118 0.587121 36.0542 0.768763 36.1995 1.42874C36.7989 0.0785094 35.5516 0.0542974 34.4497 0.0361328C34.0621 0.0542974 33.5475 0.0906169 33.166 0.120891L32.8027 0.151177C33.3658 0.114847 34.5405 0.0361291 35.1883 0.278323Z" fill="#262626"/>
<path d="M35.382 72.4038C35.5213 72.4038 35.6545 72.4098 35.7938 72.4098H35.8543C35.8543 72.4098 35.9028 72.4098 35.9209 72.4098C36.0783 72.4098 36.2297 72.4098 36.3871 72.4098C36.5203 72.4098 36.6536 72.4098 36.7686 72.4098C36.7747 72.4098 36.7807 72.4098 36.7868 72.4098C34.0379 72.3614 -5.29447 57.4544 1.06312 27.168C1.06312 27.168 1.06312 27.168 1.06312 27.174C0.845148 28.0277 0.633228 29.1782 0.451582 30.038C0.275991 31.1399 0.130675 32.6234 0.00957775 33.7314C-0.638292 60.8996 31.7855 72.0587 35.382 72.4038Z" fill="#262626"/>
<path d="M29.4545 0.629422C29.3818 0.641531 29.3031 0.6597 29.2305 0.67181C33.6566 -0.0850469 35.5033 1.00483 36.2057 1.42867C34.9523 0.0481599 32.7726 0.0723749 29.4606 0.629422H29.4545Z" fill="#262626"/>
<path d="M4.59865 18.4125C-11.3801 49.2196 33.3774 70.9686 38.7299 72.3188C38.7662 72.3188 38.8025 72.3188 38.8388 72.3128L39.075 72.2946C39.1113 72.2946 39.1476 72.2886 39.19 72.2825C39.4625 72.2583 39.7895 72.222 40.068 72.1977C40.1043 72.1977 40.1406 72.1917 40.1709 72.1856C33.8315 67.366 26.1176 64.7382 20.0083 59.5552C17.0172 57.0182 10.0117 51.0784 5.9186 43.1344C-2.27361 27.2404 5.01643 17.1046 8.59485 12.7451C8.4677 12.8904 8.3466 13.0357 8.2255 13.175L7.62002 13.8955C6.67546 15.1973 5.48266 16.9835 4.62892 18.358C4.61681 18.3761 4.61076 18.3943 4.59865 18.4125Z" fill="#262626"/>
<path d="M27.819 0.974877C27.819 0.974877 27.8614 0.962768 27.8856 0.956713C27.8311 0.968823 27.7645 0.980931 27.7161 0.993041C27.3165 1.08386 26.7958 1.22312 26.4022 1.33211C25.5908 1.55614 24.5191 1.88916 23.732 2.18585C23.2476 2.36749 22.6058 2.60969 22.1335 2.8095C21.5644 3.05169 20.8196 3.40288 20.2565 3.66323C19.6813 3.92965 18.9366 4.32321 18.3916 4.64412C17.7498 5.01952 16.9566 5.50996 16.2543 5.96407C9.0187 10.9412 3.30898 18.9275 4.09611 27.9311C5.961 49.1715 30.0169 63.7395 39.0689 69.2252C41.1599 70.4927 42.2659 71.3726 42.387 71.8651C42.387 71.8651 42.4294 71.8591 42.4476 71.853C42.9441 71.7622 43.5677 71.629 44.0642 71.526C44.0824 71.526 44.1005 71.52 44.1187 71.5139C44.2943 71.4534 44.4214 71.1991 44.5425 71.0538C44.1308 70.2606 43.3255 69.6914 38.9721 66.8396C27.7706 59.5011 16.4964 51.0606 9.91482 39.1023C-4.93774 12.1037 23.8652 -1.86486 36.205 1.42293C33.8133 0.496538 30.9009 0.393605 27.8251 0.968816L27.819 0.974877Z" fill="#262626"/>
<path d="M40.3415 63.8241C47.1593 68.6438 48.782 69.7881 46.6264 70.8538C46.6506 70.8477 46.6749 70.8417 46.693 70.8356C47.026 70.7327 47.4015 70.6055 47.7708 70.4844C48.0251 70.3997 48.2733 70.3089 48.5216 70.218C51.5732 68.8012 48.9152 66.8394 42.5576 62.159C35.5279 56.9821 26.7726 50.5397 19.3493 41.1184C-2.56926 13.3024 20.8267 -0.466349 36.1939 1.42882C18.7317 -2.35546 -18.8447 22.0093 40.3354 63.8241H40.3415Z" fill="#262626"/>
<path d="M44.3493 58.4109C52.2993 64.5082 55.2783 66.7908 51.3306 69.0675C51.3608 69.0554 51.3911 69.0372 51.4214 69.0251C52.0814 68.7102 52.9048 68.2743 53.5406 67.9534C56.6164 66.1551 55.3873 64.0662 53.6011 62.0802C46.1234 53.7669 36.1934 48.2569 28.534 40.1495C3.88471 14.0531 20.4205 1.07145 36.1995 1.43475C20.1178 -0.0305296 -8.59435 17.8192 44.3493 58.417V58.4109Z" fill="#262626"/>
<path d="M50.4955 53.3678C58.0701 59.4348 60.7706 62.6984 56.726 65.9801C57.4162 65.4957 58.2942 64.8055 58.9844 64.2787C59.3295 63.9941 59.6928 63.6853 60.038 63.3765C63.1804 60.5005 61.4185 58.9444 40.2749 40.3196C9.62525 13.3271 23.4364 3.79673 33.4269 1.80469C24.3688 3.49399 -0.892035 12.1948 50.4955 53.3678Z" fill="#262626"/>
<path d="M35.7934 1.45898C35.0487 1.52559 34.2494 1.64063 33.4199 1.80412C34.4856 1.60431 35.3211 1.50137 35.7934 1.45898Z" fill="#262626"/>
<path d="M36.1996 1.42871C36.1996 1.42871 36.0301 1.44081 35.7939 1.45898C35.9272 1.44687 36.0664 1.43477 36.1996 1.42871Z" fill="#262626"/>
<path d="M49.0842 41.4884C61.648 51.6 66.3647 56.2259 62.2777 61.2514C62.308 61.2212 62.3322 61.197 62.3564 61.1667C62.9982 60.4764 63.7732 59.5622 64.3787 58.8658C64.3908 58.8477 64.4029 58.8356 64.415 58.8174C67.9935 54.1309 64.5725 49.1962 49.8228 37.7344C11.3382 7.83552 31.7249 2.25295 36.2055 1.43555C32.9419 1.84728 5.58002 6.47924 49.0902 41.4884H49.0842Z" fill="#262626"/>
<path d="M51.6819 33.398C65.8987 44.0182 69.8101 49.4494 67.152 54.8806C67.261 54.6989 67.3639 54.5233 67.4669 54.3478L67.5637 54.1782C67.6364 54.0511 67.703 53.936 67.7696 53.821L68.581 52.2588C68.6778 52.059 68.7747 51.8592 68.8716 51.6655C72.0443 44.3875 60.0194 35.6322 52.0391 29.8256C26.0335 10.9042 29.073 3.94714 36.1996 1.44043C30.1145 3.0268 19.4337 9.32386 51.6819 33.4101V33.398Z" fill="#262626"/>
<path d="M52.3715 25.1516C64.7839 33.8948 72.2193 39.7438 70.6753 47.0399C70.7479 46.7917 70.8266 46.5434 70.8932 46.3012C71.1415 45.393 71.3897 44.3697 71.5896 43.5523C72.6552 36.2805 65.1472 30.7342 52.8135 22.2998C44.6636 16.7233 29.4962 6.34525 36.1989 1.42871C25.6877 6.35131 45.7717 20.5015 52.3715 25.1516Z" fill="#262626"/>
<path d="M53.2867 18.7221C67.2735 27.7984 72.0265 31.9157 72.2808 38.1643C72.2869 38.0432 72.299 37.916 72.305 37.7949L72.3474 36.2691L72.3111 34.7917C72.305 34.6222 72.299 34.4587 72.2869 34.2892C71.748 27.7318 63.0108 22.3248 51.9607 15.4949C44.1863 10.6934 35.3765 5.24405 36.206 1.43555C32.567 5.28643 45.04 13.3757 53.2928 18.7282L53.2867 18.7221Z" fill="#262626"/>
<path d="M52.3778 12.9276C65.2625 20.2419 70.1125 23.7961 71.6564 29.1547C71.4627 28.2283 71.1478 27.0536 70.8875 26.0606C70.8269 25.8548 70.7664 25.655 70.7058 25.4491C68.6109 19.9997 61.5933 16.0883 49.4049 9.68226C40.7888 5.14717 37.9491 3.3731 36.1992 1.43555C37.2043 4.31766 43.568 7.9324 52.3778 12.9337V12.9276Z" fill="#262626"/>
<path d="M68.8659 20.7195C68.8114 20.6105 68.763 20.5015 68.7085 20.3925L67.9759 18.9454L67.4854 18.0796C67.3946 17.9221 67.3038 17.7647 67.2069 17.6073C65.5479 15.0279 62.5447 13.1085 58.2457 10.8561C51.1434 7.13844 43.5264 4.63778 36.2061 1.42871C38.4887 2.88188 42.6847 4.80733 47.9949 7.24744C62.0845 13.7201 66.4258 16.5174 68.872 20.7195H68.8659Z" fill="#262626"/>
<path d="M64.4693 13.6777C64.4027 13.5929 64.3422 13.5203 64.2695 13.4294C64.2271 13.3749 64.1848 13.3265 64.1363 13.272C64.0818 13.2054 64.0273 13.1388 63.9728 13.0722C63.44 12.4546 62.8406 11.7825 62.3622 11.2436C59.2137 8.01639 50.41 4.7165 36.1992 1.42871C57.7545 7.88924 61.9263 10.9167 64.4693 13.6777Z" fill="#262626"/>
<path d="M58.5598 7.79841C58.033 7.39274 57.4578 6.9689 56.9613 6.6056C56.8584 6.53295 56.7555 6.46636 56.6525 6.3937C53.2315 4.23817 46.3593 2.56702 36.1992 1.42871C42.5205 2.36721 53.8249 4.48641 59.0079 8.16171C58.8565 8.03455 58.7051 7.91345 58.5598 7.79841Z" fill="#262626"/>
<path d="M44.2158 1.42267C45.0575 1.53771 45.893 1.68908 46.7044 1.87678C48.1515 2.11897 48.3332 2.17348 49.4351 2.53071C49.4049 2.5186 49.3685 2.50044 49.3383 2.49439C48.7873 2.27641 48.0365 2.0221 47.4734 1.82229H47.4613C46.1352 1.39239 44.5791 1.33791 42.7748 1.26525C42.8596 1.27131 42.9383 1.2834 43.023 1.28946C42.1027 1.20469 41.1642 1.15625 40.2136 1.15625C38.7544 1.22891 38.5606 1.24103 36.1992 1.43479C39.9532 1.27736 41.6486 1.30763 44.2158 1.42873V1.42267ZM43.5195 1.33791C43.6891 1.35607 43.8526 1.37424 44.0221 1.39846C43.8586 1.37424 43.6891 1.35607 43.5195 1.33791Z" fill="#262626"/>
</g>
</svg>
